<svg width="21" height="22" viewBox="0 0 21 22" fill="none" xmlns="http://www.w3.org/2000/svg">
<path d="M1.25 6.75H19.25M16.25 0.75V2.75M4.25 0.75V2.75M11.392 13.192C12.599 12.461 13.652 12.755 14.285 13.225C14.544 13.417 14.674 13.513 14.75 13.513C14.826 13.513 14.956 13.417 15.215 13.225C15.848 12.755 16.901 12.461 18.108 13.192C19.692 14.152 20.05 17.317 16.398 19.987C15.701 20.496 15.354 20.75 14.75 20.75C14.146 20.75 13.799 20.496 13.103 19.987C9.45 17.317 9.808 14.151 11.392 13.192Z" stroke="#C9A84C" stroke-width="1.5" stroke-linecap="round" stroke-linejoin="round"/>
<path d="M9.3 20.75C5.27 20.75 3.254 20.75 2.002 19.396C0.75 18.043 0.75 15.864 0.75 11.506V10.993C0.75 6.636 0.75 4.457 2.002 3.103C3.254 1.75 5.27 1.75 9.3 1.75H11.2C15.23 1.75 17.246 1.75 18.498 3.104C19.727 4.432 19.75 6.554 19.75 10.75" stroke="#C9A84C" stroke-width="1.5" stroke-linecap="round" stroke-linejoin="round"/>
</svg>
