<svg width="24" height="24" viewBox="0 0 24 24" fill="none" xmlns="http://www.w3.org/2000/svg">
<path d="M13 16C13 16.2652 12.8946 16.5196 12.7071 16.7071C12.5196 16.8946 12.2652 17 12 17C11.7348 17 11.4804 16.8946 11.2929 16.7071C11.1054 16.5196 11 16.2652 11 16C11 15.7348 11.1054 15.4804 11.2929 15.2929C11.4804 15.1054 11.7348 15 12 15C12.2652 15 12.5196 15.1054 12.7071 15.2929C12.8946 15.4804 13 15.7348 13 16Z" fill="#B46471"/>
<path fill-rule="evenodd" clip-rule="evenodd" d="M20.92 1.405C21.0379 1.49535 21.1263 1.61866 21.174 1.7593C21.2217 1.89994 21.2266 2.05158 21.188 2.195L20.193 5.909L22.089 4.815C22.1743 4.76497 22.2687 4.73232 22.3667 4.71892C22.4647 4.70552 22.5644 4.71164 22.66 4.73692C22.7556 4.76221 22.8453 4.80615 22.9239 4.86623C23.0025 4.92631 23.0684 5.00134 23.1178 5.087C23.1673 5.17266 23.1993 5.26725 23.2121 5.36534C23.2248 5.46342 23.218 5.56306 23.1921 5.65852C23.1662 5.75397 23.1217 5.84336 23.0611 5.92153C23.0004 5.9997 22.925 6.06511 22.839 6.114L19.375 8.114C19.2465 8.18839 19.0988 8.22297 18.9506 8.21335C18.8025 8.20373 18.6605 8.15034 18.5427 8.05996C18.4249 7.96957 18.3365 7.84625 18.2889 7.70562C18.2412 7.56499 18.2364 7.41338 18.275 7.27L19.271 3.555L17.375 4.65C17.2026 4.74945 16.9978 4.77635 16.8055 4.72478C16.6133 4.67321 16.4495 4.54739 16.35 4.375C16.2505 4.20261 16.2236 3.99777 16.2752 3.80554C16.3268 3.61332 16.4526 3.44945 16.625 3.35L20.089 1.35C20.2176 1.27581 20.3652 1.24143 20.5133 1.25122C20.6615 1.26101 20.8023 1.31453 20.92 1.405ZM12 2.75C10.1705 2.75 8.38213 3.2925 6.86098 4.3089C5.33982 5.32531 4.15423 6.76996 3.45411 8.46018C2.754 10.1504 2.57082 12.0103 2.92774 13.8046C3.28465 15.5989 4.16563 17.2471 5.45926 18.5407C6.7529 19.8344 8.40109 20.7153 10.1954 21.0723C11.9897 21.4292 13.8496 21.246 15.5398 20.5459C17.23 19.8458 18.6747 18.6602 19.6911 17.139C20.7075 15.6179 21.25 13.8295 21.25 12C21.25 11.8011 21.329 11.6103 21.4697 11.4697C21.6103 11.329 21.8011 11.25 22 11.25C22.1989 11.25 22.3897 11.329 22.5303 11.4697C22.671 11.6103 22.75 11.8011 22.75 12C22.75 17.937 17.937 22.75 12 22.75C6.063 22.75 1.25 17.937 1.25 12C1.25 6.063 6.063 1.25 12 1.25C12.1989 1.25 12.3897 1.32902 12.5303 1.46967C12.671 1.61032 12.75 1.80109 12.75 2C12.75 2.19891 12.671 2.38968 12.5303 2.53033C12.3897 2.67098 12.1989 2.75 12 2.75ZM13.398 5.125C13.4472 5.0396 13.5128 4.96473 13.5909 4.90469C13.6691 4.84464 13.7583 4.80059 13.8535 4.77505C13.9487 4.74951 14.048 4.74298 14.1457 4.75584C14.2434 4.7687 14.3377 4.8007 14.423 4.85L16.155 5.85C16.2835 5.92417 16.3871 6.03478 16.4527 6.16783C16.5183 6.30088 16.543 6.4504 16.5236 6.59747C16.5042 6.74455 16.4417 6.88258 16.3438 6.9941C16.246 7.10562 16.1173 7.18563 15.974 7.224L14.991 7.488L15.155 7.583C15.3259 7.68316 15.4502 7.84684 15.5008 8.03831C15.5514 8.22978 15.5242 8.4335 15.4252 8.60502C15.3262 8.77653 15.1633 8.90192 14.9722 8.95381C14.7811 9.0057 14.5772 8.97988 14.405 8.882L12.673 7.882C12.5445 7.8079 12.4409 7.69738 12.3752 7.56439C12.3095 7.4314 12.2848 7.28193 12.304 7.13487C12.3233 6.98781 12.3857 6.84976 12.4834 6.73818C12.5812 6.6266 12.7098 6.5465 12.853 6.508L13.837 6.244L13.673 6.15C13.5876 6.10079 13.5127 6.03523 13.4527 5.95708C13.3926 5.87892 13.3486 5.78969 13.323 5.6945C13.2975 5.5993 13.291 5.50001 13.3038 5.40229C13.3167 5.30457 13.3487 5.21034 13.398 5.125ZM5.998 10.442C6.07124 10.376 6.15678 10.3251 6.24971 10.2922C6.34265 10.2593 6.44116 10.245 6.53961 10.2502C6.63806 10.2554 6.73452 10.28 6.82347 10.3225C6.91242 10.365 6.99212 10.4247 7.058 10.498C7.522 11.015 8.023 11.25 8.5 11.25C8.977 11.25 9.478 11.015 9.942 10.498C10.0079 10.4247 10.0876 10.3651 10.1766 10.3227C10.2655 10.2802 10.362 10.2557 10.4604 10.2505C10.5588 10.2453 10.6573 10.2595 10.7502 10.2924C10.8432 10.3252 10.9287 10.3761 11.002 10.442C11.0753 10.5079 11.1349 10.5876 11.1773 10.6766C11.2198 10.7655 11.2443 10.862 11.2495 10.9604C11.2547 11.0588 11.2405 11.1573 11.2076 11.2502C11.1748 11.3432 11.1239 11.4287 11.058 11.502C10.388 12.245 9.51 12.75 8.5 12.75C7.49 12.75 6.611 12.245 5.942 11.502C5.87601 11.4288 5.8251 11.3432 5.79219 11.2503C5.75929 11.1573 5.74503 11.0588 5.75023 10.9604C5.75543 10.8619 5.77999 10.7655 5.8225 10.6765C5.86502 10.5876 5.92466 10.5079 5.998 10.442ZM12.998 10.442C13.0712 10.376 13.1568 10.3251 13.2497 10.2922C13.3426 10.2593 13.4412 10.245 13.5396 10.2502C13.6381 10.2554 13.7345 10.28 13.8235 10.3225C13.9124 10.365 13.9921 10.4247 14.058 10.498C14.523 11.015 15.023 11.25 15.5 11.25C15.977 11.25 16.477 11.015 16.942 10.498C17.0751 10.35 17.2616 10.261 17.4604 10.2505C17.6592 10.24 17.854 10.3089 18.002 10.442C18.15 10.5751 18.239 10.7616 18.2495 10.9604C18.26 11.1592 18.1911 11.354 18.058 11.502C17.388 12.245 16.51 12.75 15.5 12.75C14.49 12.75 13.611 12.245 12.942 11.502C12.876 11.4288 12.8251 11.3432 12.7922 11.2503C12.7593 11.1573 12.745 11.0588 12.7502 10.9604C12.7554 10.8619 12.78 10.7655 12.8225 10.6765C12.865 10.5876 12.9247 10.5079 12.998 10.442Z" fill="#B46471"/>
</svg>
