<svg width="22" height="22" viewBox="0 0 22 22" fill="none" xmlns="http://www.w3.org/2000/svg">
<path d="M20.75 8.75016V7.96716C20.75 6.02716 20.75 5.05816 20.164 4.45516C19.578 3.85316 18.636 3.85316 16.75 3.85316H14.671C13.754 3.85316 13.746 3.85116 12.921 3.43816L9.59 1.77116C8.199 1.07516 7.503 0.727162 6.762 0.751162C6.021 0.775162 5.35 1.16816 4.003 1.95416L2.776 2.67016C1.787 3.24716 1.293 3.53616 1.022 4.01616C0.75 4.49616 0.75 5.08016 0.75 6.24916V14.4662C0.75 16.0012 0.75 16.7692 1.092 17.1962C1.32 17.4812 1.639 17.6722 1.992 17.7362C2.522 17.8312 3.172 17.4522 4.47 16.6942C5.352 16.1792 6.2 15.6442 7.255 15.7892C8.139 15.9112 8.96 16.4692 9.75 16.8642M6.75 0.750162V15.7502M13.75 3.75016V8.25016" stroke="#C9A84C" stroke-width="1.5" stroke-linecap="round" stroke-linejoin="round"/>
<path d="M16.25 15.2502H16.259M17.058 20.4342C16.8386 20.6383 16.5497 20.7513 16.25 20.7502C15.948 20.7502 15.659 20.6372 15.442 20.4332C13.456 18.5632 10.796 16.4732 12.093 13.4402C12.795 11.8002 14.48 10.7502 16.25 10.7502C18.02 10.7502 19.706 11.8002 20.407 13.4402C21.703 16.4702 19.049 18.5712 17.058 20.4342Z" stroke="#C9A84C" stroke-width="1.5" stroke-linecap="round" stroke-linejoin="round"/>
</svg>
