<svg width="21" height="23" viewBox="0 0 21 23" fill="none" xmlns="http://www.w3.org/2000/svg">
<path d="M20.2791 4.59801C20.4908 3.96271 20.6673 3.25683 20.3849 2.69213C19.8908 1.31565 16.3261 0.645066 13.4673 3.32742C13.5026 3.04507 13.5026 2.76271 13.4673 2.44507C13.432 1.6686 13.0085 0.998007 12.4085 0.750949C11.0673 0.150949 7.9967 1.45683 7.74964 4.45683C7.3967 3.71565 7.14964 2.93918 7.07906 2.12742C7.07906 2.05683 7.04376 1.98624 7.00847 1.95095C7.36141 1.45683 7.07906 0.539184 6.62023 0.150949C6.33788 -0.0608161 5.94964 -0.0608161 5.77317 0.221537C5.66729 0.398007 5.632 0.68036 5.70259 0.927419C5.80847 1.38624 6.16141 2.05683 6.54964 2.12742C6.65553 3.29213 7.11435 4.38624 7.64376 5.37448C5.87906 3.99801 3.58494 3.50389 1.46729 4.10389C0.655526 4.31565 0.161408 4.77448 0.0908197 5.33918C0.0202315 5.76271 0.196702 6.11566 0.373173 6.39801C1.32611 8.09213 2.5967 9.32742 4.00847 9.96271C2.73788 10.4215 1.67906 11.2333 1.00847 12.4686C-0.0503566 13.9509 -0.473886 16.1039 0.726114 17.5509C1.29082 18.2215 2.27906 18.5745 3.09082 18.2215C4.57317 17.5509 4.50258 15.2568 5.84376 14.4451C5.73788 15.7157 6.12611 16.9509 6.54964 18.1509C6.76141 18.7862 7.04376 19.4568 7.64376 19.7745C8.38494 20.1627 9.54964 19.8804 10.0791 18.7157C10.6438 17.8686 11.7379 15.9627 12.5496 14.0215C12.5496 14.0215 14.1732 15.3627 15.4791 16.8451C16.0438 17.7627 16.5026 18.7509 16.8908 19.7745C17.0673 20.2333 17.2438 20.7627 17.2085 21.2568C17.1732 21.6804 16.9614 22.1745 16.5026 22.351C16.2202 22.4568 16.2908 22.8804 16.6085 22.8804H16.7143C17.2791 22.6686 17.7026 22.0686 17.7379 21.3274C17.7732 20.6921 17.5967 20.0921 17.3849 19.598C16.7144 17.798 15.7614 16.1392 14.5967 14.6215C14.5261 14.3745 14.4908 14.1274 14.3849 13.9157C14.6673 14.0568 14.9496 14.198 15.1967 14.3392C16.0791 14.9039 16.8908 15.6451 17.8438 16.1392C18.5143 16.4568 19.2908 16.6333 19.8202 16.1039C19.8555 16.1039 19.8555 16.0686 19.8908 16.0686C20.4555 15.6451 20.5614 14.8333 20.2085 13.8451C19.2202 11.1627 16.4673 8.58624 13.6438 9.39801L13.7496 9.29213C15.6202 7.91565 18.5496 9.4333 20.2791 4.59801ZM0.831996 6.15095C0.69082 5.93918 0.584937 5.69213 0.620232 5.44507C0.69082 4.98624 1.32611 4.73918 1.60847 4.6686C4.14964 3.96271 6.86729 4.91566 8.5967 7.10389C8.94964 7.70389 9.30258 8.2333 9.58494 8.62154C8.24376 7.6686 6.65553 7.0333 6.02023 6.39801C5.94964 6.00977 5.56141 5.62154 5.24376 5.51565C4.9967 5.44507 4.71435 5.55095 4.64376 5.8333C4.53788 6.39801 5.49082 7.13918 5.84376 6.96271C6.86729 7.80977 9.232 8.62154 10.5379 10.2098C10.4673 10.2451 10.432 10.2804 10.3967 10.3157C9.7967 9.82154 9.232 9.82154 8.42023 9.82154C7.50258 9.82154 6.51435 9.96271 5.5967 9.85683C3.76141 9.64507 2.032 8.30389 0.831996 6.15095ZM16.0085 9.99801C17.7732 10.6686 19.1144 12.5039 19.6791 14.0215C20.2085 15.398 19.5026 16.0333 18.6202 15.6804C18.2673 15.5392 17.9849 15.2921 17.6673 15.0451C16.2555 13.9157 14.6673 13.0333 12.9732 12.398C13.0085 10.8098 11.3143 10.3862 11.3143 10.9862C11.3143 11.1274 11.4202 11.2333 11.5967 11.2333C12.0202 11.2333 12.3732 11.6921 12.4438 12.1509C12.5144 12.6451 12.3026 13.2098 12.0908 13.7039C11.4202 15.2568 10.6438 16.8098 9.76141 18.2568C9.44376 18.7509 8.94964 19.4215 8.38494 19.3862C8.06729 19.3862 7.74964 19.1745 7.50259 18.8215C7.25553 18.4686 7.14964 18.0804 7.00847 17.6568C6.76141 16.7745 6.47906 15.8921 6.44376 14.9745C6.40847 14.2333 6.51435 12.8568 7.60847 12.1157C8.13788 11.7627 8.73788 11.5862 9.30258 11.4451C9.44376 11.4098 9.51435 11.2686 9.47906 11.1274C9.44376 10.9862 9.30258 10.9157 9.16141 10.9509C8.24376 11.1627 7.32611 11.4451 6.72611 12.1509C6.33788 12.5392 6.02023 13.2804 5.87906 13.8451C4.60847 14.2686 4.25553 15.9274 3.47906 16.8451C3.16141 17.2333 2.56141 17.6568 1.96141 17.5157C1.25553 17.3392 0.902585 16.4921 0.831996 15.7862C0.549643 13.3157 2.06729 10.8451 4.85553 10.2804C6.16141 10.598 7.18494 10.3509 8.38494 10.3862C9.16141 10.3862 9.58494 10.3862 10.0438 10.7745C9.97317 10.9157 9.93788 11.0215 10.0085 11.0921C10.1496 11.3039 10.6791 11.198 11.2438 10.8804C12.1614 10.3157 12.3026 9.57448 11.3849 9.82154C10.8202 8.51565 10.8908 7.45683 11.032 5.93918C11.3849 5.65683 11.3849 4.91565 11.1379 4.52742C10.9967 4.31565 10.6791 4.20977 10.5026 4.38624C10.1496 4.70389 10.2908 5.55095 10.5026 5.8686C10.3614 7.13918 10.2908 8.12742 10.6085 9.22154C9.7967 7.91566 9.37317 7.35095 8.42023 5.69213C8.17317 4.70389 8.34964 3.60977 8.91435 2.76271C9.832 1.35095 11.5967 0.927419 12.2673 1.20977C12.7261 1.42154 12.9732 1.95095 12.9732 2.44507C13.0438 3.64507 12.7967 3.85683 12.7967 4.0686C11.6673 5.44507 11.1732 7.10389 11.4555 8.65683C11.4908 8.79801 11.632 8.90389 11.7732 8.8686C11.9143 8.8333 12.0202 8.69213 11.9849 8.55095C11.3144 4.91565 15.4085 1.24507 18.8673 2.12742C19.1496 2.19801 19.8202 2.44507 19.9261 2.93918C20.032 3.39801 19.6085 4.24507 19.3261 4.77448C18.9026 5.58624 18.5144 6.53918 17.5614 7.13918C16.7849 7.6333 15.832 7.73918 14.9144 7.98624C14.032 8.2333 12.9026 8.76271 12.5496 9.82154C12.4791 9.99801 12.6202 10.1745 12.7967 10.1745C12.8673 10.2098 12.9732 10.2098 13.0438 10.1745C13.9967 9.68036 14.9849 9.60977 16.0085 9.99801Z" fill="white"/>
</svg>
