<svg width="24" height="24" viewBox="0 0 24 24" fill="none" xmlns="http://www.w3.org/2000/svg">
<path d="M12.8266 18.0285C12.4578 17.6597 11.86 17.6597 11.4913 18.0285C11.339 18.1807 11.2434 18.3804 11.2202 18.5944C11.197 18.8084 11.2476 19.0239 11.3637 19.2052L12.0129 20.2192C12.0811 20.3257 12.2367 20.3257 12.3049 20.2192L12.9541 19.2052C13.0702 19.024 13.1208 18.8084 13.0977 18.5944C13.0745 18.3804 12.9788 18.1807 12.8266 18.0285ZM14.3095 19.7185C14.0715 19.6882 13.8525 19.7732 13.7004 19.9252C13.2733 20.3524 13.0749 20.9216 13.1051 21.4808C13.1105 21.5808 13.2337 21.6282 13.3028 21.5557C13.5322 21.3152 13.8556 21.1653 14.2141 21.1653C14.6425 21.1653 14.9844 20.7944 14.936 20.3562C14.8997 20.0278 14.6373 19.7603 14.3095 19.7185ZM9.69047 19.7185C9.36267 19.7602 9.10026 20.0278 9.06403 20.3562C9.01561 20.7944 9.35747 21.1653 9.7859 21.1653C10.1444 21.1653 10.4679 21.3152 10.6972 21.5557C10.7663 21.6282 10.8895 21.5808 10.8949 21.4808C10.9251 20.9216 10.7267 20.3524 10.2996 19.9252C10.1475 19.7732 9.92845 19.6882 9.69047 19.7185ZM19.2319 1.82152C19.4609 1.82152 19.6472 2.0078 19.6472 2.23678C19.6472 2.49567 19.8571 2.70553 20.1159 2.70553C20.3748 2.70553 20.5847 2.49567 20.5847 2.23678C20.5847 2.0078 20.771 1.82152 21 1.82152C21.2588 1.82152 21.4687 1.61166 21.4687 1.35277C21.4687 1.09387 21.2588 0.884016 21 0.884016C20.771 0.884016 20.5847 0.697734 20.5847 0.46875C20.5847 0.209859 20.3748 0 20.1159 0C19.8571 0 19.6472 0.209859 19.6472 0.46875C19.6472 0.697734 19.4609 0.884016 19.2319 0.884016C18.9731 0.884016 18.7632 1.09387 18.7632 1.35277C18.7632 1.61166 18.9731 1.82152 19.2319 1.82152ZM16.9891 5.72077C17.2881 5.72077 17.5312 5.964 17.5312 6.26297C17.5312 6.52186 17.7412 6.73172 18 6.73172C18.2588 6.73172 18.4687 6.52186 18.4687 6.26297C18.4687 5.964 18.7119 5.72077 19.0109 5.72077C19.2697 5.72077 19.4797 5.51091 19.4797 5.25202C19.4797 4.99312 19.2697 4.78327 19.0109 4.78327C18.7119 4.78327 18.4687 4.54008 18.4687 4.24111C18.4687 3.98222 18.2588 3.77236 18 3.77236C17.7412 3.77236 17.5312 3.98222 17.5312 4.24111C17.5312 4.54008 17.2881 4.78327 16.9891 4.78327C16.7302 4.78327 16.5203 4.99312 16.5203 5.25202C16.5203 5.51091 16.7302 5.72077 16.9891 5.72077Z" fill="#B46471"/>
<path d="M20.7041 13.4084C18.794 12.6495 16.3179 12.2249 13.7157 12.2079C13.3662 11.857 13.0356 11.4878 12.7253 11.1017C14.0452 10.3291 14.8978 8.77758 14.8978 7.05572C14.8978 3.69971 12.3762 1.95465 12.2689 1.88199C12.1913 1.8295 12.0998 1.80145 12.0062 1.80145C11.9125 1.80145 11.821 1.8295 11.7435 1.88199C11.6361 1.95465 9.11447 3.69966 9.11447 7.05572C9.11447 8.77397 9.96347 10.3226 11.2785 11.0969C10.9672 11.4847 10.6353 11.8556 10.2843 12.2079C7.68211 12.225 5.20598 12.6496 3.29587 13.4085C1.17052 14.2529 0 15.4344 0 16.7354C0 16.8155 0.0205313 16.8943 0.0595781 16.9642C1.22709 19.0522 2.92908 20.8063 4.98169 22.0367C7.09561 23.3039 9.52252 23.9738 12 23.9738C14.4775 23.9738 16.9043 23.3039 19.0183 22.0367C21.0709 20.8063 22.7729 19.0523 23.9404 16.9642C23.9795 16.8943 24 16.8155 24 16.7355C24 15.4344 22.8295 14.2529 20.7041 13.4084ZM20.358 14.2797C21.7653 14.8388 22.6806 15.5402 22.9663 16.2579C20.9239 16.1876 18.9715 15.6768 17.1559 14.7362C16.3175 14.3018 15.5231 13.7774 14.7878 13.1781C16.8612 13.2895 18.8415 13.6771 20.358 14.2797ZM10.052 7.05568C10.052 5.86697 10.4209 4.76921 11.1484 3.7929C11.4673 3.36493 11.7899 3.05405 12.0065 2.86711C12.5939 3.37388 13.9604 4.79588 13.9604 7.05568C13.9604 7.94569 13.6848 8.77599 13.2139 9.41696C13.3681 9.07852 13.4554 8.69349 13.4554 8.28479C13.4554 6.83091 12.5902 5.91488 12.1968 5.57354C12.1439 5.52769 12.0762 5.50245 12.0062 5.50245C11.9362 5.50245 11.8685 5.52769 11.8155 5.57354C11.4222 5.91488 10.557 6.83091 10.557 8.28479C10.557 8.69349 10.6443 9.07852 10.7985 9.41701C10.3275 8.77604 10.052 7.94574 10.052 7.05568ZM3.64205 14.2797C5.15855 13.6771 7.13888 13.2895 9.21216 13.178C8.47692 13.7774 7.68253 14.3018 6.84408 14.7361C5.02856 15.6767 3.07608 16.1876 1.03369 16.2579C1.31939 15.5402 2.23467 14.8388 3.64205 14.2797ZM18.5363 21.2326C16.5679 22.4126 14.3077 23.0363 12 23.0363C9.69225 23.0363 7.43203 22.4126 5.4637 21.2326C4.94523 20.9217 4.44949 20.5743 3.98025 20.1931C5.44425 19.911 6.8422 19.3945 8.14608 18.6512C9.62658 17.8071 10.9226 16.7091 12 15.3865C13.0759 16.7074 14.3698 17.8041 15.8479 18.6478C17.1534 19.3929 18.5535 19.9105 20.0198 20.1931C19.5505 20.5743 19.0547 20.9217 18.5363 21.2326ZM20.918 19.3906C17.6521 18.9518 14.7174 17.2872 12.6484 14.6971C12.4903 14.4991 12.254 14.3855 12 14.3855H12C11.8754 14.3852 11.7524 14.413 11.6401 14.4669C11.5278 14.5209 11.4292 14.5996 11.3516 14.6971C9.28228 17.2876 6.34795 18.9518 3.08194 19.3906C2.40335 18.7245 1.80104 17.985 1.28616 17.1857C3.38864 17.0825 5.40019 16.5401 7.27533 15.5686C9.08911 14.6289 10.7117 13.298 12 11.6979C13.2883 13.298 14.9109 14.6289 16.7247 15.5686C18.5999 16.5401 20.6114 17.0825 22.7138 17.1857C22.199 17.9851 21.5966 18.7246 20.918 19.3906Z" fill="#B46471"/>
</svg>
